# xmcd
#
# Track frame offsets:
#	150
#	16710
#	32437
#	49690
#	62175
#	79515
#	92747
#	109317
#	127965
#	145100
#	155570
#	169710
#	187007
#	201830
#	215417
#	229647
#	248962
#	265015
#	283622
#
# Disc length: 3975 seconds
#
# Revision: 1
# Processed by: cddbd v1.5.2PL0 Copyright (c) Steve Scherf et al.
# Submitted via: audiograbber 1.83.01
#
DISCID=010f8513
DTITLE=Randy Travis - Top Hits Monthly - Randy Travis Volume 25
DYEAR=2004
DGENRE=Karaoke
TTITLE0=Randy Travis - A Man Ain't Made Of Stone
TTITLE1=Randy Travis - Stranger In My Mirror
TTITLE2=Randy Travis - Spirit Of A Boy
TTITLE3=Randy Travis - Better Class Of Losers
TTITLE4=Randy Travis - Deeper Than The Holler
TTITLE5=Randy Travis - Diggin' Up Bones
TTITLE6=Randy Travis - Forever And Ever Amen
TTITLE7=Randy Travis - Hard Rock Bottom Of Your Heart
TTITLE8=Randy Travis - He Walked On Water
TTITLE9=Randy Travis - Heroes And Friends
TTITLE10=Randy Travis - Honky Tonk Moon
TTITLE11=Randy Travis - I Told You So
TTITLE12=Randy Travis - Is It Still Over
TTITLE13=Randy Travis - 1982
TTITLE14=Randy Travis - On The Other Hand
TTITLE15=Randy Travis - Promises
TTITLE16=Randy Travis - The Box
TTITLE17=Randy Travis - There's No Place Like Home
TTITLE18=Randy Travis - Whisper My Name
EXTD=
EXTT0=
EXTT1=
EXTT2=
EXTT3=
EXTT4=
EXTT5=
EXTT6=
EXTT7=
EXTT8=
EXTT9=
EXTT10=
EXTT11=
EXTT12=
EXTT13=
EXTT14=
EXTT15=
EXTT16=
EXTT17=
EXTT18=
PLAYORDER=
